<svg xmlns="http://www.w3.org/2000/svg" viewBox="0 0 32 32">
  <defs>
    <linearGradient id="gradient" x1="0%" y1="0%" x2="100%" y2="100%">
      <stop offset="0%" style="stop-color:#667eea;stop-opacity:1" />
      <stop offset="100%" style="stop-color:#764ba2;stop-opacity:1" />
    </linearGradient>
  </defs>
  <rect width="32" height="32" rx="6" fill="url(#gradient)"/>
  <path d="M16 6c-2.5 0-4.5 2-4.5 4.5 0 1.5.7 2.8 1.8 3.6-.3.8-.5 1.6-.5 2.4 0 3.3 2.7 6 6 6s6-2.7 6-6c0-.8-.2-1.6-.5-2.4 1.1-.8 1.8-2.1 1.8-3.6C20.5 8 18.5 6 16 6zm0 2c1.4 0 2.5 1.1 2.5 2.5 0 .6-.2 1.1-.5 1.5l-.3.3c-.2.2-.3.5-.3.8v.4c0 .3.1.6.3.8.2.2.3.5.3.8 0 .6-.2 1.1-.5 1.5-.3.4-.8.6-1.3.6s-1-.2-1.3-.6c-.3-.4-.5-.9-.5-1.5 0-.3.1-.6.3-.8.2-.2.3-.5.3-.8v-.4c0-.3-.1-.6-.3-.8l-.3-.3c-.3-.4-.5-.9-.5-1.5C13.5 9.1 14.6 8 16 8z" fill="white"/>
  <circle cx="14" cy="12" r="1" fill="white"/>
  <circle cx="18" cy="12" r="1" fill="white"/>
  <path d="M14 15c.5 0 1 .5 1 1s-.5 1-1 1-1-.5-1-1 .5-1 1-1zm4 0c.5 0 1 .5 1 1s-.5 1-1 1-1-.5-1-1 .5-1 1-1z" fill="white"/>
</svg>
